<?xml version="1.0" encoding="utf-8"?>
<!-- Generator: Adobe Illustrator 16.0.0, SVG Export Plug-In . SVG Version: 6.00 Build 0)  -->
<!DOCTYPE svg PUBLIC "-//W3C//DTD SVG 1.1//EN" "http://www.w3.org/Graphics/SVG/1.1/DTD/svg11.dtd">
<svg version="1.1" id="Layer_1" xmlns="http://www.w3.org/2000/svg" xmlns:xlink="http://www.w3.org/1999/xlink" x="0px" y="0px"
	 width="229px" height="64px" viewBox="0 0 113 32" enable-background="new 0 0 113 32" xml:space="preserve">
<g>
	<path fill="#FFFFFF" d="M38.298,10.876h2.824v3.814h3.622v-3.814h2.822v10.188h-2.822v-3.872h-3.622v3.872h-2.824V10.876z"/>
	<path fill="#FFFFFF" d="M49.605,16v-0.03c0-2.925,2.358-5.298,5.501-5.298c3.144,0,5.47,2.344,5.47,5.268v0.03
		c0,2.925-2.357,5.296-5.5,5.296C51.933,21.266,49.605,18.924,49.605,16z M57.695,16v-0.03c0-1.47-1.059-2.75-2.619-2.75
		c-1.541,0-2.576,1.251-2.576,2.721v0.03c0,1.468,1.062,2.75,2.605,2.75C56.663,18.72,57.695,17.469,57.695,16z"/>
	<path fill="#FFFFFF" d="M64.973,13.35h-3.055v-2.474h8.934v2.474h-3.057v7.713h-2.822V13.35z"/>
	<path fill="#FFFFFF" d="M73.254,10.876h8.195v2.403h-5.4v1.541h4.889v2.228h-4.889v1.613h5.471v2.403h-8.266V10.876z"/>
	<path fill="#FFFFFF" d="M84.998,10.876h2.824v7.713h4.934v2.474h-7.758V10.876z"/>
	<path fill="#FFFFFF" d="M95.768,10.876h2.838v10.188h-2.838V10.876z"/>
	<path fill="#FFFFFF" d="M101.445,19.55l1.572-1.877c1.002,0.8,2.123,1.222,3.303,1.222c0.756,0,1.162-0.263,1.162-0.699v-0.028
		c0-0.423-0.334-0.654-1.717-0.976c-2.166-0.495-3.84-1.106-3.84-3.202v-0.028c0-1.892,1.5-3.259,3.941-3.259
		c1.734,0,3.084,0.466,4.191,1.353l-1.412,1.994c-0.93-0.656-1.949-1.004-2.85-1.004c-0.686,0-1.021,0.292-1.021,0.654v0.029
		c0,0.466,0.35,0.668,1.762,0.99c2.344,0.51,3.799,1.266,3.799,3.172v0.03c0,2.08-1.645,3.316-4.117,3.316
		C104.414,21.236,102.697,20.67,101.445,19.55z"/>
</g>
<path fill="#FFFFFF" d="M15.383,0.586C6.889,0.586,0,7.474,0,15.97c0,8.495,6.889,15.385,15.383,15.385
	c8.497,0,15.384-6.89,15.384-15.385C30.768,7.474,23.88,0.586,15.383,0.586z M9.002,5.333h12.763v4.255h-4.254v4.255h-4.254V9.588
	H9.002V5.333z M4.748,11.715h4.255v8.508H4.748V11.715z M21.765,26.606H9.002v-4.255h4.254v-4.255h4.254v4.255h4.254V26.606z
	 M26.018,20.223h-4.252v-8.508h4.252V20.223z"/>
</svg>
